<svg width="24" height="24" viewBox="0 0 24 24" fill="none" xmlns="http://www.w3.org/2000/svg">
<mask id="mask0_795_45299" style="mask-type:alpha" maskUnits="userSpaceOnUse" x="0" y="0" width="24" height="24">
<rect width="24" height="24" fill="#D9D9D9"/>
</mask>
<g mask="url(#mask0_795_45299)">
<path d="M12.8013 11.7L15.5513 14.45C15.6846 14.5833 15.7513 14.7543 15.7513 14.963C15.7513 15.171 15.6846 15.35 15.5513 15.5C15.4013 15.65 15.2223 15.725 15.0143 15.725C14.8056 15.725 14.6263 15.65 14.4763 15.5L11.5513 12.575C11.468 12.475 11.4056 12.3707 11.3643 12.262C11.3223 12.154 11.3013 12.0417 11.3013 11.925V7.75C11.3013 7.53333 11.3723 7.35433 11.5143 7.213C11.6556 7.071 11.8346 7 12.0513 7C12.2513 7 12.4263 7.071 12.5763 7.213C12.7263 7.35433 12.8013 7.53333 12.8013 7.75V11.7ZM11.9763 20.5C10.0263 20.5 8.28897 19.9127 6.7643 18.738C5.23897 17.5627 4.24297 16.0417 3.7763 14.175C3.70964 13.9583 3.73064 13.75 3.8393 13.55C3.9473 13.35 4.10964 13.225 4.3263 13.175C4.54297 13.125 4.73464 13.1667 4.9013 13.3C5.06797 13.4333 5.18464 13.6083 5.2513 13.825C5.6513 15.3583 6.4763 16.604 7.7263 17.562C8.9763 18.5207 10.393 19 11.9763 19C13.9263 19 15.5806 18.3207 16.9393 16.962C18.2973 15.604 18.9763 13.95 18.9763 12C18.9763 10.05 18.2973 8.39567 16.9393 7.037C15.5806 5.679 13.9263 5 11.9763 5C10.893 5 9.8723 5.24167 8.9143 5.725C7.95564 6.20833 7.13464 6.875 6.4513 7.725H8.3013C8.51797 7.725 8.6973 7.79567 8.8393 7.937C8.98064 8.079 9.0513 8.25833 9.0513 8.475C9.0513 8.69167 8.98064 8.87067 8.8393 9.012C8.6973 9.154 8.51797 9.225 8.3013 9.225H4.8763C4.6263 9.225 4.41364 9.13733 4.2383 8.962C4.06364 8.78733 3.9763 8.575 3.9763 8.325V4.9C3.9763 4.68333 4.0473 4.504 4.1893 4.362C4.33064 4.22067 4.50964 4.15 4.7263 4.15C4.94297 4.15 5.1223 4.22067 5.2643 4.362C5.40564 4.504 5.4763 4.68333 5.4763 4.9V6.525C6.29297 5.55833 7.26797 4.81233 8.4013 4.287C9.53464 3.76233 10.7263 3.5 11.9763 3.5C13.1596 3.5 14.268 3.725 15.3013 4.175C16.3346 4.625 17.2346 5.23333 18.0013 6C18.768 6.76667 19.372 7.66267 19.8133 8.688C20.2553 9.71267 20.4763 10.8167 20.4763 12C20.4763 13.1833 20.2553 14.2873 19.8133 15.312C19.372 16.3373 18.768 17.2333 18.0013 18C17.2346 18.7667 16.3346 19.375 15.3013 19.825C14.268 20.275 13.1596 20.5 11.9763 20.5Z" fill="#9CC29B"/>
</g>
</svg>
