<svg width="24" height="24" viewBox="0 0 24 24" fill="none" xmlns="http://www.w3.org/2000/svg">
<path d="M21.7222 12.7514C21.8577 11.0294 21.5315 9.30233 20.7772 7.74839C19.5285 8.93478 18.0525 9.85597 16.4382 10.4564C16.568 12.0497 16.4961 13.6531 16.2242 15.2284C18.1886 14.7336 20.05 13.895 21.7222 12.7514ZM14.6352 15.5494C14.9546 14.0224 15.0662 12.4593 14.9672 10.9024C14.0152 11.1294 13.0222 11.2494 12.0012 11.2494C10.9802 11.2494 9.98716 11.1294 9.03516 10.9024C8.93841 12.4593 9.05006 14.0221 9.36716 15.5494C11.113 15.817 12.8894 15.817 14.6352 15.5494ZM9.77316 17.1184C11.2533 17.2935 12.749 17.2935 14.2292 17.1184C13.7204 18.756 12.9695 20.3082 12.0012 21.7234C11.0328 20.3082 10.2819 18.756 9.77316 17.1184ZM7.77816 15.2294C7.5048 13.6536 7.43289 12.0494 7.56416 10.4554C5.94945 9.85511 4.47308 8.93392 3.22416 7.74739C2.46998 9.30172 2.14411 11.0291 2.28016 12.7514C3.9523 13.895 5.81369 14.7336 7.77816 15.2284V15.2294ZM21.3572 14.7514C20.8523 16.4623 19.8883 18.0023 18.57 19.2041C17.2517 20.4058 15.6294 21.2235 13.8792 21.5684C14.7557 20.0946 15.4247 18.507 15.8672 16.8504C17.7967 16.446 19.6497 15.7378 21.3572 14.7524V14.7514ZM2.64516 14.7514C4.32716 15.7224 6.17516 16.4394 8.13516 16.8504C8.57767 18.507 9.24665 20.0946 10.1232 21.5684C8.37305 21.2236 6.75081 20.4061 5.43251 19.2045C4.1142 18.0029 3.15021 16.4631 2.64516 14.7524V14.7514ZM13.8792 2.42939C16.3569 2.9164 18.5492 4.34522 19.9952 6.41539C18.9278 7.49377 17.6537 8.34546 16.2492 8.91939C15.8707 6.62721 15.0669 4.42603 13.8792 2.42939ZM12.0012 2.27539C13.4606 4.40749 14.4194 6.84175 14.8062 9.39639C13.9092 9.62639 12.9692 9.74939 12.0012 9.74939C11.0332 9.74939 10.0932 9.62739 9.19616 9.39639C9.58285 6.84174 10.5417 4.40747 12.0012 2.27539ZM10.1232 2.42939C8.93539 4.42602 8.13157 6.6272 7.75316 8.91939C6.34862 8.34549 5.07448 7.49379 4.00716 6.41539C5.4532 4.34552 7.64556 2.91705 10.1232 2.43039V2.42939Z" fill="#9CC29B"/>
</svg>
