<svg width="24" height="24" viewBox="0 0 24 24" fill="none" xmlns="http://www.w3.org/2000/svg">
<path d="M11.4691 3.84011C11.6097 3.69966 11.8004 3.62077 11.9991 3.62077C12.1979 3.62077 12.3885 3.69966 12.5291 3.84011L21.2191 12.5301C21.2878 12.6038 21.3706 12.6629 21.4626 12.7039C21.5546 12.7449 21.6539 12.7669 21.7546 12.7687C21.8553 12.7705 21.9553 12.752 22.0487 12.7142C22.1421 12.6765 22.2269 12.6204 22.2981 12.5492C22.3694 12.4779 22.4255 12.3931 22.4632 12.2997C22.5009 12.2063 22.5195 12.1063 22.5177 12.0056C22.5159 11.9049 22.4939 11.8056 22.4529 11.7136C22.4119 11.6216 22.3528 11.5388 22.2791 11.4701L13.5901 2.78011C13.3812 2.57118 13.1331 2.40544 12.8601 2.29237C12.5872 2.17929 12.2946 2.12109 11.9991 2.12109C11.7036 2.12109 11.411 2.17929 11.1381 2.29237C10.8651 2.40544 10.617 2.57118 10.4081 2.78011L1.7181 11.4701C1.58155 11.6116 1.50604 11.8011 1.50784 11.9978C1.50964 12.1944 1.58861 12.3825 1.72773 12.5215C1.86685 12.6605 2.055 12.7393 2.25165 12.7409C2.4483 12.7425 2.63772 12.6668 2.7791 12.5301L11.4691 3.84011Z" fill="#9CC29B"/>
<path d="M12 5.43193L20.159 13.5909C20.189 13.6209 20.219 13.6489 20.25 13.6769V19.8749C20.25 20.9099 19.41 21.7499 18.375 21.7499H15C14.8011 21.7499 14.6103 21.6709 14.4697 21.5303C14.329 21.3896 14.25 21.1988 14.25 20.9999V16.4999C14.25 16.301 14.171 16.1103 14.0303 15.9696C13.8897 15.8289 13.6989 15.7499 13.5 15.7499H10.5C10.3011 15.7499 10.1103 15.8289 9.96967 15.9696C9.82902 16.1103 9.75 16.301 9.75 16.4999V20.9999C9.75 21.1988 9.67098 21.3896 9.53033 21.5303C9.38968 21.6709 9.19891 21.7499 9 21.7499H5.625C5.12772 21.7499 4.65081 21.5524 4.29917 21.2008C3.94754 20.8491 3.75 20.3722 3.75 19.8749V13.6769C3.78111 13.6491 3.81146 13.6204 3.841 13.5909L12 5.42993V5.43193Z" fill="#9CC29B"/>
</svg>
