<svg width="24" height="24" viewBox="0 0 24 24" fill="none" xmlns="http://www.w3.org/2000/svg">
<path d="M10.5 1.5H8.25C7.65326 1.5 7.08097 1.73705 6.65901 2.15901C6.23705 2.58097 6 3.15326 6 3.75V20.25C6 20.8467 6.23705 21.419 6.65901 21.841C7.08097 22.2629 7.65326 22.5 8.25 22.5H15.75C16.3467 22.5 16.919 22.2629 17.341 21.841C17.7629 21.419 18 20.8467 18 20.25V3.75C18 3.15326 17.7629 2.58097 17.341 2.15901C16.919 1.73705 16.3467 1.5 15.75 1.5H13.5M10.5 1.5V3H13.5V1.5M10.5 1.5H13.5M10.5 20.25H13.5" stroke="#9CC29B" stroke-width="1.5" stroke-linecap="round" stroke-linejoin="round"/>
<path d="M11.475 16C11.475 16.2899 11.7101 16.525 12 16.525C12.2899 16.525 12.525 16.2899 12.525 16L11.475 16ZM12.3712 7.62877C12.1662 7.42374 11.8338 7.42374 11.6288 7.62877L8.28769 10.9698C8.08266 11.1749 8.08266 11.5073 8.28769 11.7123C8.49271 11.9173 8.82513 11.9173 9.03015 11.7123L12 8.74246L14.9698 11.7123C15.1749 11.9173 15.5073 11.9173 15.7123 11.7123C15.9173 11.5073 15.9173 11.1749 15.7123 10.9698L12.3712 7.62877ZM12.525 16L12.525 8L11.475 8L11.475 16L12.525 16Z" fill="#9CC29B"/>
</svg>
