<svg width="24" height="24" viewBox="0 0 24 24" fill="none" xmlns="http://www.w3.org/2000/svg">
<path d="M17.9825 18.7249C17.2838 17.7998 16.3798 17.0496 15.3417 16.5333C14.3036 16.0171 13.1599 15.7489 12.0005 15.7499C10.8411 15.7489 9.69739 16.0171 8.65932 16.5333C7.62125 17.0496 6.71724 17.7998 6.0185 18.7249M17.9815 18.7249C19.345 17.5121 20.3076 15.9135 20.7417 14.141C21.1758 12.3686 21.0608 10.506 20.412 8.80043C19.7632 7.09482 18.6112 5.62673 17.1089 4.59085C15.6066 3.55497 13.8248 3.00024 12 3.00024C10.1752 3.00024 8.39343 3.55497 6.89111 4.59085C5.38878 5.62673 4.23683 7.09482 3.58804 8.80043C2.93924 10.506 2.82425 12.3686 3.25832 14.141C3.69239 15.9135 4.655 17.5121 6.0185 18.7249M17.9815 18.7249C16.3355 20.1931 14.2061 21.0031 12.0005 20.9999C9.79453 21.0033 7.66474 20.1934 6.0185 18.7249M15.0005 9.74995C15.0005 10.5456 14.6844 11.3087 14.1218 11.8713C13.5592 12.4339 12.7962 12.7499 12.0005 12.7499C11.2049 12.7499 10.4418 12.4339 9.87918 11.8713C9.31657 11.3087 9.0005 10.5456 9.0005 9.74995C9.0005 8.9543 9.31657 8.19124 9.87918 7.62863C10.4418 7.06602 11.2049 6.74995 12.0005 6.74995C12.7962 6.74995 13.5592 7.06602 14.1218 7.62863C14.6844 8.19124 15.0005 8.9543 15.0005 9.74995V9.74995Z" stroke="#8A8A8A" stroke-width="1.5" stroke-linecap="round" stroke-linejoin="round"/>
</svg>
